<?xml version="1.0" standalone="no"?>
<!DOCTYPE svg PUBLIC "-//W3C//DTD SVG 20010904//EN"
 "http://www.w3.org/TR/2001/REC-SVG-20010904/DTD/svg10.dtd">
<svg version="1.0" xmlns="http://www.w3.org/2000/svg"
 width="305.000000pt" height="209.000000pt" viewBox="0 0 305.000000 209.000000"
 preserveAspectRatio="xMidYMid meet">

<g transform="translate(0.000000,209.000000) scale(0.100000,-0.100000)"
fill="#f5f5f5" stroke="none">
<path d="M1390 1047 l0 -473 70 -38 70 -37 0 478 0 478 -59 33 c-33 17 -64 32
-70 32 -8 0 -11 -143 -11 -473z"/>
<path d="M1780 1002 l0 -368 70 -38 70 -37 0 370 0 370 -63 36 c-35 19 -67 35
-70 35 -4 0 -7 -166 -7 -368z"/>
<path d="M1200 881 l0 -339 65 -36 c36 -20 68 -36 70 -36 3 0 5 152 5 338 l0
337 -70 38 -70 37 0 -339z"/>
<path d="M1592 880 l3 -281 63 -34 62 -35 0 285 0 285 -60 30 c-33 16 -62 30
-65 30 -3 0 -4 -126 -3 -280z"/>
<path d="M1970 883 l0 -218 70 -37 70 -37 0 219 0 219 -63 36 c-35 19 -67 35
-70 35 -4 0 -7 -98 -7 -217z"/>
<path d="M1012 708 l3 -201 60 -33 c33 -19 63 -34 68 -34 4 0 6 89 5 197 l-3
198 -68 37 -67 37 2 -201z"/>
</g>
</svg>
